<svg width="589" height="388" viewBox="0 0 589 388" fill="none" xmlns="http://www.w3.org/2000/svg">
<path d="M405.088 186.371C405.125 188.058 405.15 189.751 405.163 191.449L404.913 191.451C404.919 192.299 404.922 193.149 404.922 194C404.922 194.851 404.919 195.701 404.913 196.549L405.163 196.551C405.15 198.249 405.125 199.942 405.088 201.629L404.838 201.624C404.801 203.321 404.751 205.012 404.688 206.698L404.938 206.708C404.876 208.404 404.801 210.095 404.713 211.78L404.464 211.767C404.376 213.463 404.275 215.153 404.163 216.837L404.412 216.853C404.299 218.547 404.173 220.234 404.035 221.914L403.786 221.893C403.646 223.588 403.495 225.275 403.33 226.955L403.579 226.979C403.414 228.667 403.237 230.348 403.047 232.021L402.799 231.993C402.607 233.684 402.403 235.367 402.186 237.042L402.434 237.074C402.217 238.755 401.987 240.428 401.745 242.092L401.498 242.056C401.252 243.742 400.994 245.419 400.724 247.087L400.971 247.127C400.7 248.8 400.416 250.465 400.12 252.119L399.874 252.075C399.574 253.753 399.261 255.42 398.936 257.078L399.181 257.126C398.854 258.792 398.514 260.448 398.162 262.094L397.918 262.042C397.562 263.706 397.194 265.359 396.813 267L397.056 267.057C396.672 268.714 396.274 270.361 395.864 271.995L395.622 271.934C395.209 273.581 394.783 275.216 394.345 276.839L394.586 276.904C394.142 278.551 393.684 280.184 393.214 281.805L392.974 281.735C392.502 283.363 392.017 284.977 391.52 286.578L391.758 286.652C391.251 288.284 390.731 289.902 390.199 291.505L389.962 291.426C389.426 293.039 388.877 294.637 388.315 296.22L388.551 296.304C387.981 297.909 387.399 299.498 386.804 301.071L386.57 300.983C385.967 302.578 385.35 304.156 384.721 305.717L384.953 305.811C384.318 307.386 383.67 308.945 383.009 310.485L382.779 310.387C382.106 311.956 381.419 313.507 380.72 315.039L380.947 315.143C380.239 316.694 379.517 318.226 378.782 319.738L378.557 319.629C377.815 321.156 377.06 322.663 376.292 324.148L376.514 324.263C375.727 325.784 374.926 327.284 374.113 328.761L373.894 328.64C373.071 330.132 372.235 331.602 371.386 333.047L371.602 333.174C370.74 334.641 369.865 336.084 368.977 337.501L368.765 337.368C367.856 338.819 366.933 340.243 365.997 341.64L366.205 341.779C365.253 343.199 364.288 344.591 363.309 345.955L363.106 345.809C362.114 347.191 361.108 348.544 360.089 349.867L360.287 350.02C359.242 351.375 358.184 352.699 357.112 353.991L356.92 353.831C355.828 355.146 354.722 356.428 353.602 357.676L353.788 357.843C352.646 359.115 351.49 360.352 350.321 361.552L350.142 361.377C348.953 362.597 347.75 363.778 346.534 364.921L346.705 365.103C345.459 366.274 344.198 367.404 342.924 368.493L342.762 368.303C341.462 369.413 340.149 370.48 338.822 371.502L338.974 371.7C337.619 372.743 336.25 373.741 334.867 374.691L334.725 374.485C333.321 375.449 331.903 376.365 330.472 377.23L330.601 377.444C329.141 378.327 327.667 379.158 326.181 379.935L326.065 379.713C324.559 380.5 323.04 381.233 321.509 381.909L321.61 382.137C320.052 382.825 318.481 383.455 316.898 384.025L316.813 383.79C315.217 384.365 313.61 384.879 311.99 385.332L312.057 385.572C310.423 386.029 308.776 386.423 307.118 386.753L307.069 386.508C305.416 386.837 303.751 387.102 302.075 387.301L302.105 387.549C300.429 387.749 298.742 387.883 297.046 387.95L297.036 387.7C296.193 387.733 295.348 387.75 294.5 387.75C293.652 387.75 292.807 387.733 291.964 387.7L291.954 387.95C290.258 387.883 288.572 387.749 286.895 387.549L286.925 387.301C285.25 387.102 283.585 386.837 281.931 386.508L281.882 386.753C280.224 386.423 278.578 386.029 276.943 385.572L277.01 385.332C275.391 384.879 273.783 384.365 272.187 383.79L272.103 384.025C270.519 383.455 268.948 382.825 267.39 382.137L267.491 381.909C265.96 381.233 264.441 380.501 262.935 379.713L262.82 379.935C261.333 379.158 259.859 378.327 258.399 377.444L258.528 377.23C257.097 376.365 255.679 375.45 254.275 374.485L254.133 374.691C252.751 373.741 251.381 372.743 250.026 371.7L250.179 371.502C248.851 370.48 247.538 369.413 246.238 368.303L246.076 368.493C244.802 367.404 243.541 366.274 242.295 365.103L242.466 364.921C241.25 363.779 240.047 362.597 238.858 361.377L238.679 361.552C237.51 360.352 236.354 359.115 235.212 357.843L235.398 357.676C234.278 356.429 233.172 355.147 232.08 353.831L231.888 353.991C230.816 352.699 229.758 351.375 228.713 350.02L228.911 349.867C227.892 348.544 226.886 347.191 225.894 345.809L225.691 345.955C224.712 344.591 223.747 343.199 222.795 341.779L223.003 341.64C222.067 340.243 221.144 338.819 220.235 337.368L220.023 337.501C219.135 336.084 218.26 334.641 217.398 333.174L217.614 333.047C216.765 331.602 215.929 330.132 215.106 328.64L214.887 328.761C214.074 327.284 213.273 325.784 212.486 324.263L212.709 324.148C211.94 322.663 211.185 321.156 210.443 319.629L210.218 319.738C209.483 318.226 208.761 316.694 208.053 315.143L208.28 315.039C207.581 313.507 206.894 311.956 206.221 310.387L205.991 310.485C205.33 308.945 204.682 307.386 204.047 305.811L204.279 305.717C203.65 304.156 203.033 302.578 202.43 300.983L202.196 301.071C201.601 299.498 201.019 297.909 200.449 296.304L200.685 296.22C200.123 294.637 199.575 293.039 199.039 291.426L198.801 291.505C198.269 289.902 197.749 288.284 197.242 286.652L197.48 286.578C196.983 284.977 196.498 283.363 196.026 281.735L195.786 281.805C195.316 280.184 194.858 278.551 194.414 276.904L194.655 276.839C194.217 275.216 193.791 273.581 193.378 271.934L193.136 271.995C192.726 270.361 192.329 268.714 191.944 267.057L192.187 267C191.806 265.359 191.438 263.706 191.082 262.042L190.838 262.094C190.486 260.449 190.146 258.792 189.819 257.126L190.064 257.078C189.739 255.42 189.426 253.753 189.126 252.076L188.88 252.12C188.584 250.465 188.301 248.8 188.029 247.127L188.276 247.087C188.006 245.419 187.748 243.742 187.503 242.056L187.255 242.092C187.013 240.428 186.783 238.755 186.566 237.074L186.814 237.042C186.597 235.367 186.393 233.684 186.201 231.993L185.953 232.022C185.763 230.348 185.586 228.667 185.421 226.979L185.67 226.955C185.505 225.275 185.354 223.588 185.214 221.893L184.965 221.914C184.827 220.234 184.701 218.547 184.588 216.853L184.837 216.837C184.725 215.153 184.624 213.463 184.536 211.767L184.287 211.78C184.199 210.095 184.124 208.404 184.062 206.708L184.312 206.698C184.249 205.013 184.2 203.321 184.162 201.624L183.912 201.629C183.875 199.942 183.85 198.249 183.837 196.551L184.087 196.549C184.081 195.701 184.078 194.851 184.078 194C184.078 193.149 184.081 192.299 184.087 191.451L183.837 191.449C183.85 189.751 183.875 188.058 183.912 186.371L184.162 186.376C184.2 184.679 184.249 182.988 184.312 181.302L184.062 181.292C184.124 179.596 184.199 177.905 184.287 176.22L184.536 176.233C184.624 174.537 184.725 172.847 184.837 171.163L184.588 171.147C184.701 169.453 184.827 167.766 184.965 166.086L185.214 166.107C185.354 164.412 185.505 162.725 185.67 161.045L185.421 161.021C185.586 159.333 185.763 157.652 185.953 155.979L186.201 156.007C186.393 154.316 186.597 152.633 186.814 150.958L186.566 150.926C186.783 149.245 187.013 147.572 187.255 145.908L187.502 145.944C187.748 144.258 188.006 142.581 188.276 140.913L188.029 140.873C188.301 139.2 188.584 137.535 188.88 135.881L189.126 135.925C189.426 134.247 189.739 132.58 190.064 130.922L189.819 130.874C190.146 129.208 190.486 127.552 190.838 125.906L191.082 125.958C191.438 124.294 191.806 122.641 192.187 121L191.944 120.943C192.329 119.286 192.726 117.639 193.136 116.005L193.378 116.066C193.791 114.419 194.217 112.784 194.655 111.161L194.414 111.096C194.858 109.449 195.316 107.816 195.786 106.195L196.026 106.265C196.498 104.637 196.983 103.023 197.48 101.422L197.242 101.348C197.749 99.7158 198.269 98.0981 198.801 96.495L199.039 96.5739C199.575 94.9609 200.123 93.3628 200.685 91.7799L200.449 91.6963C201.019 90.0913 201.601 88.502 202.196 86.9287L202.43 87.0172C203.033 85.4223 203.65 83.8439 204.279 82.2827L204.047 82.1892C204.682 80.6136 205.33 79.0554 205.991 77.5149L206.221 77.6135C206.894 76.0439 207.581 74.4929 208.28 72.9609L208.053 72.8571C208.761 71.3056 209.483 69.7736 210.218 68.2616L210.443 68.3709C211.185 66.8438 211.94 65.3373 212.709 63.8517L212.486 63.7369C213.273 62.2156 214.074 60.7162 214.887 59.2395L215.106 59.3601C215.929 57.8676 216.765 56.3982 217.614 54.9526L217.398 54.826C218.26 53.3591 219.135 51.9165 220.023 50.4989L220.235 50.6316C221.144 49.1812 222.067 47.757 223.003 46.3597L222.795 46.2206C223.747 44.8008 224.712 43.4088 225.691 42.0452L225.894 42.191C226.886 40.8086 227.892 39.4556 228.911 38.1326L228.713 37.98C229.758 36.6248 230.816 35.301 231.888 34.0095L232.08 34.1691C233.172 32.8535 234.278 31.5715 235.398 30.3239L235.212 30.1569C236.354 28.8848 237.51 27.6483 238.679 26.4483L238.858 26.6228C240.047 25.4032 241.25 24.2216 242.466 23.0788L242.295 22.8966C243.541 21.7258 244.802 20.5957 246.076 19.5071L246.238 19.6972C247.538 18.5871 248.851 17.5204 250.178 16.4983L250.026 16.3002C251.381 15.2565 252.75 14.2591 254.133 13.309L254.275 13.5151C255.679 12.5505 257.097 11.6351 258.528 10.7698L258.399 10.5559C259.859 9.67314 261.333 8.84245 262.82 8.06509L262.935 8.28664C264.441 7.49955 265.96 6.76737 267.491 6.09139L267.39 5.86268C268.948 5.17507 270.519 4.54535 272.103 3.97492L272.187 4.21012C273.783 3.63533 275.39 3.12099 277.01 2.66849L276.943 2.42771C278.577 1.97095 280.224 1.57693 281.882 1.24712L281.931 1.49231C283.585 1.16326 285.249 0.898377 286.925 0.699093L286.895 0.450844C288.572 0.251416 290.258 0.117425 291.954 0.0503178L291.964 0.300122C292.807 0.266767 293.652 0.25 294.5 0.25C295.348 0.25 296.193 0.266765 297.036 0.300116L297.046 0.0503112C298.742 0.117414 300.428 0.251401 302.105 0.450826L302.075 0.699076C303.75 0.898356 305.415 1.16324 307.069 1.49228L307.118 1.24709C308.776 1.5769 310.423 1.97091 312.057 2.42768L311.99 2.66845C313.609 3.12095 315.217 3.63529 316.813 4.21008L316.897 3.97488C318.481 4.54531 320.052 5.17502 321.61 5.86263L321.509 6.09134C323.04 6.76732 324.559 7.4995 326.065 8.28659L326.18 8.06504C327.667 8.84241 329.141 9.67309 330.601 10.5558L330.472 10.7698C331.903 11.635 333.321 12.5505 334.725 13.515L334.867 13.309C336.25 14.2591 337.619 15.2565 338.974 16.3002L338.822 16.4982C340.149 17.5203 341.462 18.587 342.762 19.6971L342.924 19.5071C344.198 20.5956 345.459 21.7258 346.705 22.8965L346.534 23.0787C347.75 24.2215 348.953 25.4032 350.142 26.6228L350.321 26.4483C351.49 27.6482 352.646 28.8847 353.788 30.1569L353.602 30.3239C354.722 31.5715 355.828 32.8535 356.92 34.1691L357.112 34.0094C358.184 35.301 359.242 36.6248 360.287 37.98L360.089 38.1326C361.108 39.4556 362.114 40.8086 363.106 42.191L363.309 42.0452C364.288 43.4088 365.253 44.8008 366.205 46.2206L365.997 46.3597C366.933 47.757 367.856 49.1812 368.765 50.6316L368.977 50.4989C369.865 51.9165 370.74 53.3591 371.602 54.826L371.386 54.9526C372.235 56.3982 373.071 57.8676 373.894 59.3601L374.113 59.2395C374.926 60.7162 375.727 62.2156 376.514 63.7369L376.292 63.8517C377.06 65.3373 377.815 66.8438 378.557 68.3709L378.782 68.2616C379.517 69.7736 380.239 71.3056 380.947 72.8571L380.72 72.961C381.42 74.4929 382.106 76.044 382.779 77.6135L383.009 77.515C383.67 79.0554 384.318 80.6137 384.953 82.1892L384.721 82.2827C385.35 83.844 385.967 85.4223 386.57 87.0172L386.804 86.9287C387.399 88.502 387.981 90.0913 388.551 91.6963L388.315 91.7799C388.877 93.3628 389.426 94.9609 389.962 96.5739L390.199 96.495C390.731 98.0981 391.251 99.7158 391.758 101.348L391.52 101.422C392.017 103.023 392.502 104.637 392.974 106.265L393.214 106.195C393.684 107.816 394.142 109.449 394.586 111.096L394.345 111.161C394.783 112.784 395.209 114.419 395.622 116.066L395.864 116.005C396.274 117.639 396.671 119.286 397.056 120.943L396.813 121C397.194 122.641 397.562 124.294 397.918 125.958L398.162 125.906C398.514 127.551 398.854 129.208 399.181 130.874L398.936 130.922C399.261 132.58 399.574 134.247 399.874 135.924L400.12 135.88C400.416 137.535 400.699 139.2 400.971 140.873L400.724 140.913C400.994 142.581 401.252 144.258 401.498 145.944L401.745 145.908C401.987 147.572 402.217 149.245 402.434 150.926L402.186 150.958C402.403 152.633 402.607 154.316 402.799 156.007L403.047 155.978C403.237 157.652 403.414 159.333 403.579 161.021L403.33 161.045C403.495 162.725 403.646 164.412 403.786 166.107L404.035 166.086C404.173 167.766 404.299 169.453 404.412 171.147L404.163 171.163C404.275 172.847 404.376 174.537 404.464 176.233L404.713 176.22C404.801 177.905 404.876 179.596 404.938 181.292L404.688 181.302C404.751 182.987 404.801 184.679 404.838 186.376L405.088 186.371Z" stroke="black" stroke-width="0.5" stroke-dasharray="5 5"/>
<path d="M588.75 194C588.75 247.536 576.37 295.992 556.368 331.055C536.361 366.125 508.761 387.75 478.328 387.75C447.896 387.75 420.295 366.125 400.288 331.055C380.286 295.992 367.906 247.536 367.906 194C367.906 140.464 380.286 92.0081 400.288 56.9452C420.295 21.8751 447.896 0.25 478.328 0.25C508.761 0.25 536.361 21.8751 556.368 56.9452C576.37 92.0081 588.75 140.464 588.75 194Z" stroke="black" stroke-width="0.5"/>
<path d="M221.094 194C221.094 247.536 208.714 295.992 188.712 331.055C168.705 366.125 141.104 387.75 110.672 387.75C80.2393 387.75 52.6387 366.125 32.6322 331.055C12.6297 295.992 0.25 247.536 0.25 194C0.25 140.464 12.6297 92.0081 32.6322 56.9452C52.6387 21.8751 80.2393 0.25 110.672 0.25C141.104 0.25 168.705 21.8751 188.712 56.9452C208.714 92.0081 221.094 140.464 221.094 194Z" stroke="black" stroke-width="0.5"/>
<circle cx="548" cy="344" r="10" fill="black"/>
<circle cx="345" cy="21" r="10" fill="black"/>
<circle cx="27" cy="319" r="10" fill="black"/>
</svg>
