<svg width="796px" height="686px" fill="none" xmlns="http://www.w3.org/2000/svg" viewBox="0 0 796 686" style=""><defs><path id="pathHeroCS1" d="M281.179 79.269H1M281.179 606.731H1"></path><path id="pathHeroCS2" d="M500.104 8.355h280.18M500.104 678.007h280.18"></path></defs><path d="M398.121 538.215c-107.751 0-195.086-87.309-195.086-195.034s87.335-195.034 195.086-195.034" stroke="#FBFBFB" stroke-width=".5" stroke-miterlimit="10" stroke-dasharray="5 5"></path><path d="M398.12 148.147c163.913 0 296.806 87.309 296.806 195.034S562.033 538.215 398.12 538.215" stroke="#FBFBFB" stroke-width=".5" stroke-miterlimit="10"></path><path d="M398.12 538.215C178.787 538.215 1 450.906 1 343.181s177.787-195.034 397.12-195.034" stroke="#FBFBFB" stroke-width=".5" stroke-miterlimit="10" stroke-dasharray="5 5"></path><path d="M398.12 148.147c219.334 0 397.121 87.309 397.121 195.034S617.454 538.215 398.12 538.215" stroke="#FBFBFB" stroke-width=".5" stroke-miterlimit="10"></path><path d="M398.12 148.147c107.751 0 195.086 87.309 195.086 195.034S505.871 538.215 398.12 538.215" stroke="#FBFBFB" stroke-width=".5" stroke-miterlimit="10"></path><path d="M398.12 538.215c-135.831 0-245.958-87.309-245.958-195.034S262.289 148.147 398.12 148.147" stroke="#FBFBFB" stroke-width=".5" stroke-miterlimit="10" stroke-dasharray="5 5"></path><path d="M398.12 148.147c60.378 0 109.335 87.309 109.335 195.034S458.498 538.215 398.12 538.215V148.147Z" stroke="#FBFBFB" stroke-width=".5" stroke-miterlimit="10"></path><use href="#pathHeroCS1" class="c-animation__path" stroke="#FBFBFB" stroke-width=".5" stroke-miterlimit="10" stroke-dasharray="5 5"></use><use href="#pathHeroCS1" class="c-animation__path c-animation__path--cs-1" stroke="#000" stroke-width="1"></use><use href="#pathHeroCS2" class="c-animation__path" stroke="#FBFBFB" stroke-width=".5" stroke-miterlimit="10"></use><use href="#pathHeroCS2" class="c-animation__path c-animation__path--cs-2" stroke="#000" stroke-width="1"></use><path d="M279.478 87.209a7.373 7.373 0 0 0 0-14.746 7.374 7.374 0 1 0 0 14.746ZM279.478 613.537a7.373 7.373 0 1 0 0-14.746 7.374 7.374 0 1 0 0 14.746ZM787.648 685a7.373 7.373 0 1 0 0-14.746 7.373 7.373 0 0 0 0 14.746ZM781.976 15.746A7.373 7.373 0 1 0 781.977 1a7.373 7.373 0 0 0-.001 14.746Z" fill="#000" stroke="#FBFBFB" stroke-width=".5" stroke-miterlimit="10"></path></svg>