<svg width="650" height="650" viewBox="0 0 650 650" fill="none" xmlns="http://www.w3.org/2000/svg">
<rect width="650" height="650" fill="#E6E6E6"/>
<path d="M367.055 368.461V388.403C367.055 398.144 374.669 405.52 384.308 406.865C411.022 410.591 439.94 415.16 475.808 420.86C491.199 423.31 501.995 437.662 505.84 452.763L529.407 545.301H339.15H122L145.566 452.763C149.412 437.662 160.208 423.31 175.598 420.86C211.467 415.16 240.384 410.591 267.098 406.865C276.746 405.52 284.352 398.136 284.352 388.403V368.58" stroke="black" stroke-width="0.5" stroke-miterlimit="10"/>
<path d="M407.116 410.157C407.116 410.157 366.918 440.615 325.732 440.615C284.546 440.615 244.348 410.157 244.348 410.157" stroke="black" stroke-width="0.5" stroke-miterlimit="10"/>
<path d="M213.072 236.89C194.815 152.307 240.884 130.876 240.884 130.876C227.995 128.996 217.794 113.69 217.794 113.69C299.153 115.843 299.417 104 330.036 104C410.595 104 417.035 150.75 417.035 150.75C417.035 150.75 455.618 155.063 440.049 236.43" stroke="black" stroke-width="0.5" stroke-miterlimit="10"/>
<path d="M417.029 258.695C422.907 171.347 352.319 192.097 352.319 192.097C352.319 192.097 312.172 153.592 263.227 185.453C222.713 211.827 230.77 239.272 234.309 258.151C241.388 295.95 257.62 381.674 325.707 381.674C393.471 381.674 414.434 297.329 417.029 258.695Z" stroke="black" stroke-width="0.5" stroke-miterlimit="10"/>
<path d="M231.407 233.3C223.095 230.186 211.133 228.867 211.133 247.006C211.133 274.8 228.548 290.089 241.42 291.169" stroke="black" stroke-width="0.5" stroke-miterlimit="10"/>
<path d="M411.941 291.169C424.814 290.08 442.229 274.8 442.229 247.005C442.229 228.867 430.148 229.888 421.955 233.299C420.611 233.861 416.663 235.733 416.663 235.733" stroke="black" stroke-width="0.5" stroke-miterlimit="10"/>
</svg>
