<svg width="880px" height="609px" viewBox="0 0 880 609" version="1.1" xmlns="http://www.w3.org/2000/svg" fill-rule="evenodd" clip-rule="evenodd" stroke-miterlimit="10">
  <!-- Paths -->
  <path id="path1" d="M129.472 311.639c0-139.088 167.842-251.824 374.913-251.824 207.07 0 374.912 112.736 374.912 251.824" fill="none" stroke="#000" stroke-width=".5"></path>
  <path id="path2" d="M193.708 306.185c0-134.067 124.723-242.743 278.56-242.743 153.838 0 278.561 108.676 278.561 242.743" fill="none" stroke="#000" stroke-width=".5" stroke-dasharray="15,15"></path>
  <path id="path3" d="M684.743 306.186c0 136.061-124.291 246.346-277.624 246.346-153.333 0-277.647-110.285-277.647-246.346" fill="none" stroke="#000" stroke-width=".5"></path>
  <path id="path4" d="M815.037 313.993c0 131.737-182.232 238.539-407.031 238.539C183.208 552.532 1 445.73 1 313.993" fill="none" stroke="#000" stroke-width=".5" stroke-dasharray="5,5"></path>
  <path  d="M193.708 608.095V306.186v301.909ZM440.147 388.605c42.508 0 76.967-34.459 76.967-76.966 0-42.508-34.459-76.967-76.967-76.967-42.507 0-76.966 34.459-76.966 76.967 0 42.507 34.459 76.966 76.966 76.966Z" fill="none" stroke="#000" stroke-width=".5"></path>
  <path id="path5" d="M440.147,388.605C482.655,388.605 517.114,354.146 517.114,311.639C517.114,269.131 482.655,234.672 440.147,234.672C397.64,234.672 363.181,269.131 363.181,311.639C363.181,354.146 397.64,388.605 440.147,388.605Z" fill="none"></path>
  <path d="M1.217 313.993h192.489m491.032 0h194.763" fill="none" stroke="#000" stroke-width=".5"></path>
  
  <!-- Animated Circle -->
  <circle r="7" fill="#000">
    <animateMotion repeatCount="indefinite" dur="5s">
      <mpath href="#path5" />
    </animateMotion>
  </circle>
</svg>