<svg width="650" height="650" viewBox="0 0 650 650" fill="none" xmlns="http://www.w3.org/2000/svg">
<rect width="650" height="650" fill="#E6E6E6"/>
<path d="M367.055 368.461V388.403C367.055 398.144 374.669 405.52 384.308 406.865C411.022 410.591 439.94 415.16 475.808 420.86C491.199 423.31 501.995 437.662 505.84 452.763L529.407 545.301H339.15H122L145.566 452.763C149.412 437.662 160.208 423.31 175.598 420.86C211.467 415.16 240.384 410.591 267.098 406.865C276.746 405.52 284.352 398.136 284.352 388.403V368.58" stroke="black" stroke-width="0.5" stroke-miterlimit="10"/>
<path d="M407.116 410.157C407.116 410.157 355.56 489.491 325.732 489.491C295.904 489.491 244.348 410.157 244.348 410.157" stroke="black" stroke-width="0.5" stroke-miterlimit="10"/>
<path d="M414.891 247.457C414.891 247.457 409.727 383.137 325.705 383.137C241.684 383.137 236.52 247.457 236.52 247.457C318.933 254.271 352.802 197.372 352.802 197.372C352.802 197.372 361.404 255.386 414.9 247.457H414.891Z" stroke="black" stroke-width="0.5" stroke-miterlimit="10"/>
<path d="M207.664 416.606V222.044C207.664 156.85 260.514 104 325.708 104C390.902 104 443.752 156.85 443.752 222.044V416.606" stroke="black" stroke-width="0.5" stroke-miterlimit="10"/>
</svg>
