<svg fill="none" xmlns="http://www.w3.org/2000/svg" viewBox="0 0 300 226"><path d="M218 224c25.957 0 47-46.562 47-104S243.957 16 218 16s-47 46.562-47 104 21.043 104 47 104ZM47.5 225C73.181 225 94 178.438 94 121S73.181 17 47.5 17 1 63.562 1 121s20.819 104 46.5 104ZM132.5 225c21.263 0 38.5-46.562 38.5-104S153.763 17 132.5 17 94 63.562 94 121s17.237 104 38.5 104Z" stroke="#000" stroke-width=".5" stroke-miterlimit="10"/><path d="M299.5 221.521S270.682.5 241.024.5c-32.199 0-41.124 221.021-62.028 221.021-20.904 0-35.39-130.021-50.158-130.021-13.824 0-34.444 130.021-50.137 130.021C63.008 221.521 58.829 141 45.5 141c-13.33 0-31 80.521-44.5 80.521" stroke="#000" stroke-width=".5" stroke-miterlimit="10" stroke-dasharray="5 5"/><circle cx="209" cy="94" r="6" fill="#000"/><circle cx="100" cy="178" r="6" fill="#000"/></svg>