<svg class="c-cssvg__5" fill="none" xmlns="http://www.w3.org/2000/svg" viewBox="0 0 326 246"><mask id="a" fill="#fff"><path d="M325.5 2.05v241.9l-73.8-60.33-74.14-60.61L251.7 62.4l73.8-60.35ZM326 1l-74.61 61-74.61 61 74.61 61L326 245V1Z"></path></mask><path d="M325.5 2.05v241.9l-73.8-60.33-74.14-60.61L251.7 62.4l73.8-60.35ZM326 1l-74.61 61-74.61 61 74.61 61L326 245V1Z" fill="#E6E6E6"></path><path d="M325.5 2.05h1V-.06l-1.633 1.336.633.774Zm0 241.9-.633.774 1.633 1.335v-2.109h-1Zm-73.8-60.33-.633.774.633-.774Zm-74.14-60.61-.633-.774-.947.774.947.774.633-.774ZM251.7 62.4l.633.774-.633-.774ZM326 1h1v-2.11L325.367.227 326 1ZM176.78 123l-.633-.774-.947.774.947.774.633-.774ZM326 245l-.633.774 1.633 1.335V245h-1ZM324.5 2.05v241.9h2V2.05h-2Zm1.633 241.126-73.8-60.33-1.266 1.548 73.8 60.33 1.266-1.548Zm-73.8-60.33-74.14-60.61-1.266 1.548 74.14 60.61 1.266-1.548Zm-74.14-59.062 74.14-60.61-1.266-1.548-74.14 60.61 1.266 1.548Zm74.14-60.61 73.8-60.35-1.266-1.548-73.8 60.35 1.266 1.548ZM325.367.226l-74.61 61 1.266 1.548 74.61-61-1.266-1.548Zm-74.61 61-74.61 61 1.266 1.548 74.61-61-1.266-1.548Zm-74.61 62.548 74.61 61 1.266-1.548-74.61-61-1.266 1.548Zm74.61 61 74.61 61 1.266-1.548-74.61-61-1.266 1.548ZM327 245V1h-2v244h2Z" fill="#E6E6E6" mask="url(#a)"></path><mask id="b" fill="#fff"><path d="M325.5 32.39v181.22l-73.85-45.28-73.92-45.32 73.92-45.32 73.85-45.28m.5-.89-74.61 45.75-74.61 45.75 74.61 45.75L326 214.52V31.5v.02Z"></path></mask><path d="M325.5 32.39v181.22l-73.85-45.28-73.92-45.32 73.92-45.32 73.85-45.28m.5-.89-74.61 45.75-74.61 45.75 74.61 45.75L326 214.52V31.5v.02Z" fill="#E6E6E6"></path><path d="m325.5 213.61-.523.853 1.523.933v-1.786h-1Zm-73.85-45.28.523-.853-.523.853Zm-73.92-45.32-.523-.853-1.39.853 1.39.853.523-.853Zm73.92-45.32.523.853-.523-.853ZM326 31.52l.523.853.477-.293v-.56h-1Zm-74.61 45.75-.523-.852.523.852Zm-74.61 45.75-.523-.852-1.39.852 1.39.852.523-.852Zm74.61 45.75-.523.852.523-.852ZM326 214.52l-.523.852 1.523.934v-1.786h-1Zm-1.5-182.13v181.22h2V32.39h-2Zm1.523 180.367-73.85-45.28-1.046 1.706 73.85 45.28 1.046-1.706Zm-73.85-45.28-73.92-45.32-1.046 1.706 73.92 45.32 1.046-1.706Zm-73.92-43.614 73.92-45.32-1.046-1.706-73.92 45.32 1.046 1.706Zm73.92-45.32 73.85-45.28-1.046-1.705-73.85 45.28 1.046 1.705Zm73.304-47.876-74.61 45.75 1.046 1.706 74.61-45.75-1.046-1.705Zm-74.61 45.75-74.61 45.751 1.046 1.704 74.61-45.75-1.046-1.704Zm-74.61 47.455 74.61 45.75 1.046-1.704-74.61-45.75-1.046 1.704Zm74.61 45.75 74.61 45.75 1.046-1.704-74.61-45.75-1.046 1.704ZM327 214.52V31.5h-2v183.02h2ZM325 31.5v.02h2v-.02h-2Z" fill="#E6E6E6" mask="url(#b)"></path><mask id="c" fill="#fff"><path d="M325.5 62.74v120.51l-73.92-30.22-73.48-30.04 73.48-30.04 73.92-30.22m.5-.74-74.61 30.5-74.61 30.5 74.61 30.5 74.61 30.5v-122Z"></path></mask><path d="M325.5 62.74v120.51l-73.92-30.22-73.48-30.04 73.48-30.04 73.92-30.22m.5-.74-74.61 30.5-74.61 30.5 74.61 30.5 74.61 30.5v-122Z" fill="#E6E6E6"></path><path d="m325.5 183.25-.378.926 1.378.563v-1.489h-1Zm-73.92-30.22.378-.926-.378.926Zm-73.48-30.04-.378-.926-2.265.926 2.265.926.378-.926Zm73.48-30.04.378.926-.378-.926ZM326 61.99h1V60.5l-1.378.564.378.926Zm-74.61 30.5-.378-.926.378.926Zm-74.61 30.5-.378-.926-2.265.926 2.265.926.378-.926Zm74.61 30.5-.378.926.378-.926Zm74.61 30.5-.378.926 1.378.563v-1.489h-1Zm-1.5-121.25v120.51h2V62.74h-2Zm1.378 119.584-73.92-30.22-.756 1.852 73.92 30.22.756-1.852Zm-73.92-30.22-73.48-30.04-.756 1.852 73.48 30.04.756-1.852Zm-73.48-28.188 73.48-30.04-.756-1.852-73.48 30.04.756 1.852Zm73.48-30.04 73.92-30.22-.756-1.852-73.92 30.22.756 1.852Zm73.664-32.812-74.61 30.5.756 1.852 74.61-30.5-.756-1.852Zm-74.61 30.5-74.61 30.5.756 1.852 74.61-30.5-.756-1.852Zm-74.61 32.352 74.61 30.5.756-1.852-74.61-30.5-.756 1.852Zm74.61 30.5 74.61 30.5.756-1.852-74.61-30.5-.756 1.852ZM327 183.99V62h-2v121.99h2ZM327 62v-.01h-2V62h2Z" fill="#E6E6E6" mask="url(#c)"></path><mask id="d" fill="#fff"><path d="M325.5 93.11v59.77l-74.01-15.13-72.22-14.76 72.22-14.76L325.5 93.1m.5-.61-74.61 15.25-74.61 15.25 74.61 15.25L326 153.49v-61Z"></path></mask><path d="M325.5 93.11v59.77l-74.01-15.13-72.22-14.76 72.22-14.76L325.5 93.1m.5-.61-74.61 15.25-74.61 15.25 74.61 15.25L326 153.49v-61Z" fill="#E6E6E6"></path><path d="m325.5 152.88-.2.98 1.2.245v-1.225h-1Zm-74.01-15.13.2-.98-.2.98Zm-72.22-14.76-.2-.98v1.96l.2-.98Zm72.22-14.76.2.98-.2-.98Zm-74.71 14.76-.2-.98v1.96l.2-.98Zm74.61 15.25-.2.98.2-.98ZM326 153.49l-.2.98 1.2.245v-1.225h-1Zm-1.5-60.38v59.77h2V93.11h-2Zm1.2 58.79-74.01-15.13-.4 1.96 74.01 15.13.4-1.96Zm-74.01-15.13-72.22-14.76-.4 1.96 72.22 14.76.4-1.96Zm-72.22-12.8 72.22-14.76-.4-1.96-72.22 14.76.4 1.96Zm72.22-14.76 74.01-15.13-.4-1.96-74.01 15.13.4 1.96Zm74.11-17.7-74.61 15.25.4 1.96 74.61-15.25-.4-1.96Zm-74.61 15.25-74.61 15.25.4 1.96 74.61-15.25-.4-1.96Zm-74.61 17.21 74.61 15.25.4-1.96-74.61-15.25-.4 1.96Zm74.61 15.25 74.61 15.25.4-1.96-74.61-15.25-.4 1.96ZM327 153.49v-61h-2v61h2Z" fill="#E6E6E6" mask="url(#d)"></path><path d="M178.86 123H326" stroke="#E6E6E6" stroke-width=".5" stroke-miterlimit="10"></path><path class="c-cssvg__5-circle c-cssvg__5-circle--3" d="M41.67 245c22.461 0 40.67-18.209 40.67-40.67 0-22.462-18.209-40.67-40.67-40.67C19.209 163.66 1 181.868 1 204.33 1 226.791 19.209 245 41.67 245Z" stroke="#E6E6E6" stroke-width=".5" stroke-miterlimit="10" stroke-dasharray="5 5"></path><path class="c-cssvg__5-circle c-cssvg__5-circle--2" d="M41.67 163.67c22.461 0 40.67-18.209 40.67-40.67 0-22.461-18.209-40.67-40.67-40.67C19.209 82.33 1 100.54 1 123c0 22.461 18.209 40.67 40.67 40.67Z" stroke="#E6E6E6" stroke-width=".5" stroke-miterlimit="10" stroke-dasharray="5 5"></path><path class="c-cssvg__5-circle c-cssvg__5-circle--1" d="M41.67 82.34c22.461 0 40.67-18.209 40.67-40.67C82.34 19.209 64.131 1 41.67 1 19.209 1 1 19.209 1 41.67c0 22.461 18.209 40.67 40.67 40.67Z" stroke="#E6E6E6" stroke-width=".5" stroke-miterlimit="10" stroke-dasharray="5 5"></path><path d="m42.4 40.42 92.16 82.3-92.16 82.29" stroke="#E6E6E6" stroke-width=".5" stroke-miterlimit="10"></path><mask id="e" fill="#fff"><path d="m42.28 43.05.5-.05-.23-2.45 2.46-.05L45 40l-3 .06.28 2.99Z"></path></mask><path d="m42.28 43.05.5-.05-.23-2.45 2.46-.05L45 40l-3 .06.28 2.99Z" fill="#E6E6E6"></path><path d="m42.28 43.05-.996.093.094 1.002 1.002-.1-.1-.995Zm.5-.05.1.995.988-.099-.092-.99-.996.094Zm-.23-2.45-.02-1-1.076.022.1 1.072.996-.094Zm2.46-.05.02 1 1-.02-.02-1-1 .02ZM45 40l1-.02-.02-1-1 .02.02 1Zm-3 .06-.02-1-1.076.022.1 1.071.996-.093Zm.38 3.985.5-.05-.2-1.99-.5.05.2 1.99Zm1.396-1.139-.23-2.45-1.992.188.23 2.45 1.992-.188ZM42.57 41.55l2.46-.05-.04-2-2.46.05.04 2Zm3.44-1.07-.01-.5-2 .04.01.5 2-.04ZM44.98 39l-3 .06.04 2 3-.06-.04-2Zm-3.976 1.153.28 2.99 1.992-.186-.28-2.99-1.992.186Z" fill="#E6E6E6" mask="url(#e)"></path><mask id="f" fill="#fff"><path d="m42.28 202.38.5.05-.23 2.45 2.46.05-.01.5-3-.06.28-2.99Z"></path></mask><path d="m42.28 202.38.5.05-.23 2.45 2.46.05-.01.5-3-.06.28-2.99Z" fill="#E6E6E6"></path><path d="m42.28 202.38.1-.995-1.002-.1-.094 1.002.996.093Zm.5.05.996.093.092-.989-.989-.099-.099.995Zm-.23 2.45-.996-.094-.1 1.072 1.076.022.02-1Zm2.46.05 1 .02.02-1-1-.02-.02 1Zm-.01.5-.02 1 1 .02.02-1-1-.02Zm-3-.06-.996-.093-.1 1.071 1.076.022.02-1Zm.18-1.995.5.05.2-1.99-.5-.05-.2 1.99Zm-.396-1.039-.23 2.45 1.992.187.23-2.45-1.992-.187Zm.746 3.544 2.46.05.04-2-2.46-.05-.04 2Zm1.48-.97-.01.5 2 .04.01-.5-2-.04Zm1.01-.48-3-.06-.04 2 3 .06.04-2Zm-2.024 1.033.28-2.99-1.992-.186-.28 2.99 1.992.186Z" fill="#E6E6E6" mask="url(#f)"></path><path d="M134.56 122.72H42.54" stroke="#E6E6E6" stroke-width=".5" stroke-miterlimit="10"></path><mask id="g" fill="#fff"><path d="m44.2 120.67.34.37-1.81 1.68 1.81 1.68-.34.36-2.2-2.04 2.2-2.05Z"></path></mask><path d="m44.2 120.67.34.37-1.81 1.68 1.81 1.68-.34.36-2.2-2.04 2.2-2.05Z" fill="#E6E6E6"></path><path d="m44.2 120.67.736-.677-.681-.741-.737.686.682.732Zm.34.37.68.733.73-.677-.674-.733-.736.677Zm-1.81 1.68-.68-.733-.79.733.79.733.68-.733Zm1.81 1.68.727.687.693-.734-.74-.686-.68.733Zm-.34.36-.68.733.727.674.68-.72-.727-.687Zm-2.2-2.04-.682-.732-.787.734.79.731.679-.733Zm1.464-1.373.34.37 1.472-1.354-.34-.37-1.472 1.354Zm.396-1.04-1.81 1.68 1.36 1.466 1.81-1.68-1.36-1.466Zm-1.81 3.146 1.81 1.68 1.36-1.466-1.81-1.68-1.36 1.466Zm1.763.26-.34.36 1.454 1.374.34-.36-1.454-1.374Zm1.067.314-2.2-2.04-1.36 1.466 2.2 2.04 1.36-1.466Zm-2.198-.575 2.2-2.05-1.364-1.464-2.2 2.05 1.364 1.464Z" fill="#E6E6E6" mask="url(#g)"></path></svg>