<svg class="c-cssvg__4" viewBox="0 0 327 246" xmlns="http://www.w3.org/2000/svg"><defs><path id="path4" d="M326 202.27c-37.72 13.92-79.73 4.18-113.55-29.88L110.91 69.92C78.16 36.95 37.75 26.77 1 38.78"></path></defs><use href="#path4" class="c-cssvg__4-path"></use><use href="#path4" class="c-cssvg__4-path c-cssvg__4-path--mask"></use><path stroke-width="0.5px" stroke="#e6e6e6" d="M1 1h12.77v12.77H1zM313.23 1H326v12.77h-12.77zM313.23 232.23H326V245h-12.77zM157.12 232.23h12.77V245h-12.77zM313.23 116.62H326v12.77h-12.77zM1 116.62h12.77v12.77H1zM157.12 116.62h12.77v12.77h-12.77zM1 232.23h12.77V245H1zM157.12 1h12.77v12.77h-12.77z"></path></svg>