<svg class="c-cssvg__6" viewBox="0 0 320 246" xmlns="http://www.w3.org/2000/svg"><defs><path id="path5" d="M272.67 59c-29.68 70.29-52.03 186.36-112.48 186.36h1.53C75.02 245.36 65.47 166 1.5 166"></path></defs><use href="#path5" class="c-cssvg__6-path"></use><use href="#path5" class="c-cssvg__6-path c-cssvg__6-path--mask"></use><path class="c-cssvg__6-spark" d="M272.54 60.11V41.58h-.5v18.35l-7.88-16.64-.45.21 7.88 16.64-14.3-11.8-.31.38 14.27 11.8-18-4.76-.12.49 17.97 4.74-18.33 3.19.09.5 18.34-3.2L255.95 72l.28.41 15.27-10.52-9.32 15.88.44.25 9.42-16.07v18.57h.5V62.15l7.88 16.64.45-.21L273 61.96l14.27 11.79.32-.39-14.26-11.78 17.99 4.75.13-.49-18-4.75 18.34-3.19-.08-.49-18.35 3.19 15.26-10.52-.29-.4-15.26 10.52 9.31-15.89-.43-.25-9.41 16.05Z" fill="#e6e6e6"></path><path d="M1 245.25h318.5v-.5H1v.5ZM7.25 7.53v-.54h-.5v.54H1v.5h5.75v78.72H1v.5h158.75v78.5H1v.5h158.75v.16h.5v-.16H319.5v-.5H160.25v-78.5H319.5v-.5H160.25v-.33h-.5v.33H7.25V8.03H319.5v-.5H7.25Z" fill="#e6e6e6"></path><path d="M159.63 91.7a5.64 5.64 0 1 0 0-11.28 5.64 5.64 0 0 0 0 11.27ZM6.63 12.27A5.64 5.64 0 1 0 6.63 1a5.64 5.64 0 0 0 0 11.27Z" stroke="#e6e6e6" stroke-width=".5"></path></svg>