<svg class="c-cssvg__8" viewBox="0 0 326 245" xmlns="http://www.w3.org/2000/svg"><path class="c-cssvg__8-spark" d="m41.79 42.025-3.058-6.674-.454.208 3.068 6.697-5.559-4.746-.325.38 5.571 4.757-7.017-1.914-.131.482 7.035 1.919-7.173 1.286.089.492 7.141-1.28-5.947 4.237.291.407 5.944-4.236-3.632 6.402.435.247 3.722-6.56v7.579l.5-.001v-7.39l3.067 6.695.454-.208-3.068-6.697 5.559 4.746.325-.381-5.571-4.755 7.016 1.913.132-.482-7.014-1.913 7.151-1.282-.088-.493-7.172 1.286 5.968-4.252-.29-.407-5.944 4.235 3.632-6.401-.435-.247-3.722 6.56v-7.579h-.5v7.37Z" fill="#e6e6e6"></path><path class="c-cssvg__8-cog" d="M68.664 59.677c8.953-14.739 4.468-34.072-10.016-43.182-14.485-9.11-33.485-4.547-42.437 10.192-8.953 14.739-4.469 34.072 10.016 43.182 14.484 9.11 33.484 4.547 42.437-10.192Z" fill="none" stroke="#e6e6e6" stroke-width=".5" stroke-dasharray="5,5"></path><path class="c-cssvg__8-spark" d="m163.332 42.045-3.067-6.694-.454.208 3.068 6.698-5.56-4.747-.324.38 5.57 4.756-7.016-1.913-.132.482 7.035 1.919-7.172 1.286.088.492 7.15-1.282-5.945 4.239.29.407 5.939-4.235-3.627 6.401.434.247 3.723-6.568v7.587h.5v-7.371l3.058 6.675.454-.208-3.067-6.697 5.558 4.746.324-.381-5.57-4.755 7.016 1.913.132-.482-7.014-1.913 7.151-1.282-.088-.493-7.166 1.285 5.962-4.251-.29-.407-5.941 4.236 3.628-6.403-.434-.246-3.713 6.55v-7.569h-.5v7.39Z" fill="#e6e6e6"></path><path class="c-cssvg__8-cog" d="M192.061 55.189c6.516-16.008-.955-34.36-16.687-40.991-15.731-6.631-33.767.971-40.284 16.979-6.516 16.008.955 34.36 16.687 40.991 15.732 6.631 33.767-.971 40.284-16.979Z" fill="none" stroke="#e6e6e6" stroke-width=".5" stroke-dasharray="5,5"></path><path class="c-cssvg__8-spark" d="m284.463 42.047-3.068-6.696-.454.208 3.067 6.696-5.558-4.745-.324.38 5.57 4.756-7.016-1.913-.132.482 7.035 1.919-7.172 1.286.088.492 7.154-1.283-5.95 4.24.29.407 5.945-4.236-3.632 6.402.434.247 3.723-6.561v7.58h.5v-7.369l3.057 6.673.454-.208-3.068-6.698 5.56 4.747.324-.381-5.57-4.755 7.016 1.913.132-.482-7.014-1.913 7.151-1.282-.088-.493-7.161 1.284 5.965-4.25-.29-.407-5.943 4.235 3.631-6.401-.434-.247-3.722 6.559v-7.578h-.5v7.392Z" fill="#e6e6e6"></path><path class="c-cssvg__8-cog" d="M296.515,72.163C312.247,65.532 319.717,47.18 313.201,31.172C306.685,15.164 288.649,7.562 272.917,14.193C257.185,20.824 249.714,39.176 256.231,55.184C262.747,71.192 280.783,78.794 296.515,72.163Z" fill="none" stroke="#e6e6e6" stroke-width=".5" stroke-dasharray="5,5"></path><path class="c-cssvg__8-dash" d="M42.04,11.808L284.713,11.808"></path><path class="c-cssvg__8-dash" d="M284.713,74.555L42.442,74.555"></path><path d="M133.582 216.024h61.515M164.339 223.246v-14.444M163 244c89.47 0 162-12.536 162-28s-72.53-28-162-28S1 200.536 1 216s72.53 28 162 28Z" fill="none" stroke="#e6e6e6" stroke-width=".5"></path><path d="M320.5 209.5 163.48 103 5.5 209.5" fill="none" stroke="#e6e6e6" stroke-width=".5"></path></svg>