<svg class="c-cssvg__3" viewBox="0 0 652 490" xmlns="http://www.w3.org/2000/svg"><defs><path id="path2" d="M292 318.276c-154.571 17.172-279.709-6.812-290.281-59.28-11.828-58.616 123.766-130.577 302.858-160.75 179.093-30.151 333.877-7.089 345.704 51.526 6.517 32.29-31.697 68.635-97.281 99.802"></path><path id="path3" d="M314.441 231.519C149.7 253.684 12.798 229.981 1.719 174.996-10.109 116.38 125.485 44.419 304.577 14.246 483.67-15.905 638.454 7.157 650.281 65.772c7.9 39.141-49.927 84.24-142.559 118.854"></path></defs><use href="#path2" class="c-cssvg__3-path"></use><use href="#path2" class="c-cssvg__3-path c-cssvg__3-path--mask"></use><use href="#path3" class="c-cssvg__3-path2"></use><use href="#path3" class="c-cssvg__3-path2 c-cssvg__3-path2--mask"></use><path d="M434 489c66.826 0 121-71.187 121-159s-54.174-159-121-159-121 71.187-121 159 54.174 159 121 159Z" stroke-width="0.5px" stroke="#e6e6e6" fill="none"></path><path d="m433.697 328.817-16.231-34.284-.452.214 16.234 34.289-29.444-24.33-.318.386 29.426 24.315-37.09-9.788-.128.484 37.057 9.779-37.794 6.57.086.492 37.812-6.573-31.448 21.68.284.412 31.462-21.689-19.197 32.744.432.252 19.309-32.936v38.046h.5v-37.838l16.231 34.284.452-.214-16.219-34.259 29.407 24.3.318-.386-29.402-24.296 37.091 9.789.128-.484-37.112-9.793 37.825-6.576-.086-.492-37.812 6.573 31.448-21.68-.284-.412-31.459 21.688 19.196-32.744-.432-.252-19.29 32.904V291h-.5v37.817Z" fill="#e6e6e6"></path></svg>