<svg class="c-cssvg__2" viewBox="0 0 327 244" xmlns="http://www.w3.org/2000/svg"><path class="c-cssvg__2-path" d="M163.5 0v244M115.44 9.285l96.13 225.43M74.68 35.733l177.65 172.534M47.46 75.312l232.09 93.376M37.89 122h251.23M47.46 168.688l232.09-93.376M74.68 208.267 252.33 35.733M115.44 234.715l96.13-225.43" stroke-width="0.5px" stroke="#e6e6e6" fill="none"></path><path stroke-width="0.5px" stroke="#000" d="M131.87 99.379h63.27v45.251h-63.27z"></path><path d="M163.5 126.575c2.601 0 4.71-2.049 4.71-4.575 0-2.527-2.109-4.575-4.71-4.575s-4.71 2.048-4.71 4.575c0 2.526 2.109 4.575 4.71 4.575Z" fill="#e6e6e6" stroke-width="0.5px" stroke="#e6e6e6"></path><path d="M290.39 240.744h35.86v-34.837h-.5v34.337h-35.36v.5ZM.75 205.907v34.837h35.86v-.5H1.25v-34.337h-.5Zm325.5-167.814V3.256h-35.86v.5h35.36v34.337h.5ZM36.61 3.256H.75v34.837h.5V3.756h35.36v-.5Z" fill="#e6e6e6"></path></svg>