<svg class="c-cssvg__7" viewBox="0 0 326 246" xmlns="http://www.w3.org/2000/svg"><defs><path id="path6" d="M.25 123h325"></path></defs><use href="#path6" class="c-cssvg__7-path"></use><use href="#path6" class="c-cssvg__7-path c-cssvg__7-path--mask"></use><path class="c-cssvg__7-spark c-cssvg__7-spark--1" d="M74.05,81.856L63.207,58.604L62.753,58.816L73.602,82.078L53.941,65.579L53.619,65.961L73.283,82.464L48.485,75.819L48.355,76.302L73.148,82.945L47.876,87.404L47.963,87.896L73.237,83.437L52.217,98.155L52.503,98.565L73.525,83.846L60.693,106.075L61.126,106.325L74.05,83.937L74.05,109.79L74.55,109.79L74.55,84.112L85.403,107.386L85.857,107.174L75.008,83.912L94.669,100.411L94.991,100.029L75.332,83.53L100.115,90.172L100.245,89.689L75.456,83.046L100.733,78.586L100.647,78.094L75.372,82.553L96.393,67.835L96.107,67.425L75.085,82.144L87.916,59.915L87.483,59.665L74.55,82.071L74.55,56.2L74.05,56.2L74.05,81.856Z"></path><path class="c-cssvg__7-spark c-cssvg__7-spark--2" d="M210.76,121.747L210.76,55.93L210.26,55.93L210.26,121.743L185.071,60.944L184.609,61.136L209.791,121.917L163.267,75.393L162.913,75.747L209.461,122.295L148.646,97.099L148.454,97.561L209.253,122.75L143.44,122.75L143.44,123.25L209.216,123.25L148.454,148.439L148.646,148.901L209.471,123.685L162.913,170.253L163.267,170.607L209.801,124.063L184.609,184.864L185.071,185.056L210.26,124.261L210.26,190.07L210.76,190.07L210.76,124.257L235.949,185.056L236.411,184.864L211.215,124.049L257.763,170.607L258.117,170.253L211.592,123.719L272.384,148.901L272.576,148.439L211.767,123.25L277.58,123.25L277.58,122.75L211.729,122.75L272.576,97.561L272.384,97.099L211.602,122.261L258.117,75.747L257.763,75.393L211.225,121.931L236.411,61.136L235.949,60.944L210.76,121.747Z"></path><path d="M.25 1h325v60.04M325.25 245H.25v-61" fill="none" stroke="#e6e6e6" stroke-width=".5"></path></svg>