<svg class="c-cssvg__1" viewBox="0 0 327 189" xmlns="http://www.w3.org/2000/svg"><defs><path id="path1" d="m1 94.56 6.02-24.71c6.02-29.65 14.64-29.4 20.61.6l11.68 58.66c3.1 15.57 6.91 23.12 10.7 22.64v.01c3.65-.21 7.29-7.88 10.27-22.96l11.44-58.05c5.97-30.28 14.63-30.66 20.67-.9l12.15 59.85c6.02 29.65 14.64 29.4 20.61-.6l5.84-29.33-.01.01 5.84-29.33c3.1-15.57 6.91-23.12 10.7-22.64v-.02c3.65.21 7.29 7.88 10.27 22.96l11.44 58.05c5.97 30.28 14.63 30.66 20.67.9l12.15-59.85c6.02-29.65 14.64-29.4 20.61.6l11.68 58.66c3.1 15.57 6.91 23.12 10.7 22.64l-.01.01c3.65-.21 7.29-7.88 10.27-22.96l11.44-58.05c5.97-30.28 14.63-30.66 20.67-.9l12.15 59.85c6.02 29.65 14.64 29.4 20.61-.6l5.84-34.55"></path></defs><use href="#path1" class="c-cssvg__1-path"></use><use href="#path1" class="c-cssvg__1-path c-cssvg__1-path--mask"></use><path d="M1 94.56h325V1.04c-12.6-.86-26.1 12.73-36.4 40.74l-38.82 105.56c-19.85 53.97-48.5 54.42-68.5 1.07l-40.39-107.7c-20.08-53.55-48.86-52.87-68.7 1.62L35.15 146.78c-9.9 27.15-22 40.95-34.15 41.33V94.56Z" stroke-width="0.5px" stroke="#e6e6e6" fill="none"></path></svg>